<svg width="49" height="49" viewBox="0 0 49 49" fill="none" xmlns="http://www.w3.org/2000/svg">
<path d="M44.2418 14.1883C42.9351 9.75789 39.2397 6.06248 34.8093 4.75581C31.4405 3.77581 29.113 3.85748 27.5001 5.06206C25.5605 6.51164 25.3359 9.12497 25.3359 10.9829V16.0666C25.3359 21.0891 27.6226 23.6412 32.1143 23.6412H37.9739C39.8114 23.6412 42.4451 23.4166 43.8947 21.477C45.1401 19.8846 45.2422 17.5571 44.2418 14.1883Z" fill="#FFC936"/>
<path d="M38.6053 27.2789C38.0745 26.6664 37.2986 26.3193 36.5024 26.3193H29.1932C25.5999 26.3193 22.6803 23.3997 22.6803 19.8064V12.4973C22.6803 11.701 22.3332 10.9252 21.7207 10.3943C21.1286 9.86351 20.312 9.61851 19.5362 9.72059C14.7382 10.3331 10.3282 12.9668 7.44949 16.9277C4.55033 20.9089 3.48866 25.768 4.40741 30.6272C5.7345 37.6505 11.3491 43.2651 18.3928 44.5922C19.5157 44.8168 20.6386 44.9189 21.7616 44.9189C25.457 44.9189 29.0299 43.7755 32.072 41.5501C36.0328 38.6714 38.6666 34.2614 39.2791 29.4634C39.3811 28.6672 39.1361 27.871 38.6053 27.2789Z" fill="#FFC936"/>
</svg>
