<svg width="96" height="208" viewBox="0 0 96 208" fill="none" xmlns="http://www.w3.org/2000/svg">
<path d="M61.5602 1C28.1136 1 1 11.2992 1 24.004C1 36.7088 28.1136 47.0081 61.5602 47.0081C80.3045 47.0081 95.5 42.6483 95.5 37.2702C95.5 31.8921 80.3045 27.5322 61.5602 27.5322C28.1136 27.5322 1 37.8315 1 50.5362C1 63.2411 28.1136 73.5407 61.5602 73.5407C80.3045 73.5407 95.5 69.1807 95.5 63.8024C95.5 58.4243 80.3045 54.0645 61.5602 54.0645C28.1136 54.0645 1 64.427 1 77.2096C1 89.9922 28.1136 100.355 61.5602 100.355C80.3045 100.355 95.5 95.9951 95.5 90.6168C95.5 85.2385 80.3045 80.8794 61.5602 80.8794C28.1136 80.8794 1 91.1782 1 103.883C1 116.588 28.1136 126.887 61.5602 126.887C80.3045 126.887 95.5 122.528 95.5 117.149C95.5 111.771 80.3045 107.411 61.5602 107.411C28.1136 107.411 1 117.711 1 130.416C1 143.12 28.1136 153.419 61.5602 153.419C80.3045 153.419 95.5 149.059 95.5 143.682C95.5 138.304 80.3045 133.944 61.5602 133.944C28.1136 133.944 1 144.243 1 156.947C1 169.652 28.1136 179.952 61.5602 179.952C80.3045 179.952 95.5 175.592 95.5 170.213C95.5 164.836 80.3045 160.476 61.5602 160.476C28.1136 160.476 1 170.838 1 183.621C1 196.403 28.1136 206.766 61.5602 206.766" stroke="black" stroke-linecap="round"/>
</svg>
